# xmcd
#
# Track frame offsets:
#	150
#	16498
#	33143
#	51842
#	66304
#	85487
#	98997
#	117627
#	137731
#	150693
#	163287
#	178315
#	194395
#	209393
#	222644
#	240369
#
# Disc length: 3468
#
# Revision: 5
# Processed by: cddbd v1.5.2PL0 Copyright (c) Steve Scherf et al.
# Submitted via: kJams Pro 1.0b21
#
DISCID=f20d8a10
DTITLE=Various Artist - ACK14
DYEAR=1900
DGENRE=Karaoke
TTITLE0=Adam Brand - Last Man Standing
TTITLE1=Becky Cole - Rest In Pieces
TTITLE2=Brendan Walmsley - Rose and Rodeo
TTITLE3=Gina Jeffries - Girls Night Out
TTITLE4=Graeme Connors - The Road Less Travelled
TTITLE5=John Denver - Thank God Im A Country Boy
TTITLE6=John Williamson - True Blue
TTITLE7=Casey Chambers - The Captain
TTITLE8=Keith Urban - Walkin' In The Country
TTITLE9=Lee Kernaghan - Boys From The Bush
TTITLE10=Lee Kernaghan - The Outback Club
TTITLE11=Shanley Dell - Your Own Sweet Time
TTITLE12=Slim Dusty and Troy Casser Daly - The Biggest Dissapointment
TTITLE13=Tania Kernaghan - Boys In Boots
TTITLE14=Troy Casser Daly - They Don't Make Them Like That Anymore
TTITLE15=Red Gum - I Was Only 19
EXTD=
EXTT0=
EXTT1=
EXTT2=
EXTT3=
EXTT4=
EXTT5=
EXTT6=
EXTT7=
EXTT8=
EXTT9=
EXTT10=
EXTT11=
EXTT12=
EXTT13=
EXTT14=
EXTT15=
PLAYORDER=
